<svg height="466pt" viewBox="-16 0 466 466.238" width="466pt" xmlns="http://www.w3.org/2000/svg"><path d="M393.852 161.238h-.711a38.745 38.745 0 00-26.477 10.59c-5.586-16.32-20.402-28.012-37.809-28.012a39.148 39.148 0 00-28.32 12.653c-6.59-13.906-20.2-23.23-35.887-23.23h-.757c-9.028 0-17.817 2.687-23.817 8.03V42.392C240.074 19.016 221.95 0 199.828 0c-22.098 0-40.152 19-40.168 42.36l-.172 195.554-11.863-14.422a54.94 54.94 0 00-38.809-20.387 54.076 54.076 0 00-40.496 14.333l-9.558 7.93a8.001 8.001 0 00-1.992 9.85l92.957 178.47c16.91 32.488 49.078 52.55 83.949 52.55h104.261c52.872 0 95.93-45.699 95.985-102.023.023-25.164.05-43.883.066-59.13.055-41.05.074-56.397-.031-101.585-.055-23.312-18.043-42.262-40.105-42.262zm24.136 143.887c-.015 15.246-.043 33.91-.066 59.074-.047 47.508-35.926 86.04-79.984 86.04H233.676c-28.887 0-55.617-16.762-69.762-43.934L73.938 233.504l4.742-3.899c.101-.085.207-.16.304-.253a38.178 38.178 0 0128.704-10.29 39.07 39.07 0 0127.554 14.59l26.012 31.668a8.004 8.004 0 0014.184-5.074l.152-217.871c.008-14.54 10.957-26.371 24.246-26.371 13.285 0 24.238 11.836 24.238 26.387v131.382c0 .454-.02.907-.02 1.364 0 .199.02.386.02.578v56.183a8 8 0 0016 0v-57.855c0-14.04 10.864-24.805 23.817-24.805h.757c13.29 0 24.426 11.356 24.426 25.91v51.391a8 8 0 0016 0v-40.324c0-14.55 10.672-26.39 24.04-26.39 13.292 0 23.96 11.84 23.96 26.39v38.043a8 8 0 0016 0V203.66c0-14.555 10.774-26.422 24.067-26.422h.71c13.258 0 24.075 11.82 24.106 26.328.106 45.16.086 60.528.031 101.559zm0 0"/><path d="M268.074 79.238h103.684l-18.59 18.59a7.996 7.996 0 00-2.164 7.77 8.004 8.004 0 005.707 5.707 8.007 8.007 0 007.77-2.168l32.128-32.125c3.125-3.125 3.125-8.192 0-11.313L364.48 33.574a7.997 7.997 0 00-11.277.031 7.998 7.998 0 00-.035 11.282l18.352 18.351H268.074a8 8 0 000 16zm0 0M27.313 79.238h102.761a8 8 0 000-16H27.551l18.351-18.351a7.998 7.998 0 00-.035-11.282 7.997 7.997 0 00-11.277-.03L2.46 65.698c-3.12 3.125-3.12 8.192 0 11.313l32.13 32.125a7.993 7.993 0 007.746 2.11 7.995 7.995 0 005.676-5.677 7.996 7.996 0 00-2.11-7.746zm0 0"/></svg>